HIERARCHY
ROOT root
{
	OFFSET	0	13.1	24.9
	CHANNELS 6  Xposition Yposition Zposition Xrotation Yrotation Zrotation
	JOINT spine_1
	{
		OFFSET	0	9.99999	0
		CHANNELS 3  Xrotation Yrotation Zrotation
		JOINT spine_2
		{
			OFFSET	0	112	-10
			CHANNELS 3  Xrotation Yrotation Zrotation
			JOINT spine_3
			{
				OFFSET	0	206.5	19.3
				CHANNELS 3  Xrotation Yrotation Zrotation
				JOINT spine_4
				{
					OFFSET	0	110.4	14.6
					CHANNELS 3  Xrotation Yrotation Zrotation
					JOINT neck_1
					{
						OFFSET	0	71.8	-50.3
						CHANNELS 3  Xrotation Yrotation Zrotation
						JOINT neck_2
						{
							OFFSET	0	86.2	-25.8
							CHANNELS 3  Xrotation Yrotation Zrotation
							JOINT head_ee
							{
								OFFSET	0	179.8	-8.7
								CHANNELS 3  Xrotation Yrotation Zrotation
								End Site
								{
									OFFSET	1	0	0
								}
							}
						}
					}
					JOINT left_clavicle
					{
						OFFSET	-43.2	22.4	-70.8
						CHANNELS 3  Xrotation Yrotation Zrotation
						JOINT left_shoulder
						{
							OFFSET	-93.9	-5.79999	48.7
							CHANNELS 3  Xrotation Yrotation Zrotation
							JOINT left_elbow
							{
								OFFSET	-291.4	-30.8	15.2
								CHANNELS 3  Xrotation Yrotation Zrotation
								JOINT left_lowarm_twist
								{
									OFFSET	-110.7	-3.89999	13.6
									CHANNELS 3  Xrotation Yrotation Zrotation
									JOINT left_hand
									{
										OFFSET	-110.7	-3.89999	13.6
										CHANNELS 3  Xrotation Yrotation Zrotation
										JOINT left_ee
										{
											OFFSET	-80.8	-5.10001	12.1
											CHANNELS 3  Xrotation Yrotation Zrotation
											End Site
											{
												OFFSET	1	0	0
											}
										}
									}
								}
							}
						}
					}
					JOINT right_clavicle
					{
						OFFSET	43.2	22.4	-70.8
						CHANNELS 3  Xrotation Yrotation Zrotation
						JOINT right_shoulder
						{
							OFFSET	93.9	-5.79999	48.7
							CHANNELS 3  Xrotation Yrotation Zrotation
							JOINT right_elbow
							{
								OFFSET	291.4	-30.8	15.2
								CHANNELS 3  Xrotation Yrotation Zrotation
								JOINT right_lowarm_twist
								{
									OFFSET	110.7	-3.89999	13.6
									CHANNELS 3  Xrotation Yrotation Zrotation
									JOINT right_hand
									{
										OFFSET	110.7	-3.89999	13.6
										CHANNELS 3  Xrotation Yrotation Zrotation
										JOINT right_ee
										{
											OFFSET	80.8	-5.10001	12.1
											CHANNELS 3  Xrotation Yrotation Zrotation
											End Site
											{
												OFFSET	1	0	0
											}
										}
									}
								}
							}
						}
					}
				}
			}
		}
	}
	JOINT left_hip
	{
		OFFSET	-82.8	-127.5	0.300001
		CHANNELS 3  Xrotation Yrotation Zrotation
		JOINT left_knee
		{
			OFFSET	-28.2	-396.7	2.2
			CHANNELS 3  Xrotation Yrotation Zrotation
			JOINT left_ankle
			{
				OFFSET	-11.7	-411.3	35.4
				CHANNELS 3  Xrotation Yrotation Zrotation
				JOINT left_toes
				{
					OFFSET	0	-60	-88.6
					CHANNELS 3  Xrotation Yrotation Zrotation
					JOINT left_foot_ee
					{
						OFFSET	-22.5	-16.5	-42.2
						CHANNELS 3  Xrotation Yrotation Zrotation
						End Site
						{
							OFFSET	1	0	0
						}
					}
				}
			}
		}
	}
	JOINT right_hip
	{
		OFFSET	82.8	-127.5	0.300001
		CHANNELS 3  Xrotation Yrotation Zrotation
		JOINT right_knee
		{
			OFFSET	28.2	-396.7	2.2
			CHANNELS 3  Xrotation Yrotation Zrotation
			JOINT right_ankle
			{
				OFFSET	11.7	-411.3	35.4
				CHANNELS 3  Xrotation Yrotation Zrotation
				JOINT right_toes
				{
					OFFSET	0	-60	-88.6
					CHANNELS 3  Xrotation Yrotation Zrotation
					JOINT right_foot_ee
					{
						OFFSET	22.5	-16.5	-42.2
						CHANNELS 3  Xrotation Yrotation Zrotation
						End Site
						{
							OFFSET	1	0	0
						}
					}
				}
			}
		}
	}
}
MOTION
Frames: 10
Frame Time: 0.02
2544.4389 762.195 -1527.86319041 158.09479958 85.7927488553 -156.247269885 0.771435 -0.0093346 -2.04988 0.773765 0.121096 -2.04632 0.769921 0.522121 -1.98232 0.764495 0.202567 -2.03987 -10.2426 2.21894 6.34917 -10.129 -0.0937192 6.73802 -0.0 0.0 -0.0 4.20659 -6.76711 7.74805 -20.9921 -14.4024 77.3646 0.20114 -5.69024 0.00999616 -33.0048 -2.23979 3.51436 0.432157 6.52372 5.54813 -0.0 0.0 -0.0 1.38454 -0.00175188 -2.66738 9.8159 15.584 -73.9809 2.57008 51.8432 -1.24932 42.5545 0.488759 5.29092 -2.99624 -19.5882 10.017 0.0 0.0 0.0 12.8035 7.40023 -8.37869 -41.6325 -0.573883 6.22529 33.5723 20.9139 -4.41049 -16.1505 0.0 0.0 -0.0 0.0 -0.0 6.2642 23.0993 -8.59521 3.02201 0.136191 0.443646 37.6572 15.3433 4.96395 -23.75 0.0 0.0 0.0 0.0 0.0 
2532.64998122 762.19 -1524.81483466 158.251692373 83.1799359386 -156.632247775 0.650676 0.0298357 -1.97846 0.65284 0.155645 -1.97256 0.647958 0.545508 -1.90204 0.642989 0.238332 -1.96429 -11.0875 1.47902 4.90963 -11.0195 -0.44158 5.14164 -0.0 0.0 -0.0 4.43669 -8.21326 8.12924 -22.9958 -13.8308 77.2186 0.205205 -5.80446 0.0104033 -31.8606 -2.13002 3.41695 1.00195 5.87495 9.04806 -0.0 0.0 -0.0 1.16701 -1.70888 -2.41574 10.2812 16.5581 -73.6237 3.0183 56.2132 -1.61233 42.0196 0.458457 5.22956 -2.62626 -16.425 9.44586 0.0 0.0 0.0 13.8573 5.69949 -8.16672 -38.8748 -0.39674 5.84013 28.5195 21.2118 -3.85698 -18.4363 0.0 0.0 -0.0 0.0 -0.0 5.36804 22.9784 -8.77722 0.182274 0.00754856 0.026953 37.5036 15.0448 4.93998 -24.0974 0.0 0.0 0.0 0.0 0.0 
2523.58240577 760.413 -1522.76620219 144.465738361 83.8598240099 -142.96658325 0.223886 0.180521 -1.92755 0.225902 0.302787 -1.91217 0.216296 0.691375 -1.80837 0.211952 0.397155 -1.89482 -12.5261 2.36011 5.37797 -12.4453 1.0629 5.83184 -0.0 0.0 -0.0 4.132 -6.78912 7.59438 -25.2721 -13.3266 76.847 0.340959 -9.58703 0.0285923 -32.1065 -2.15345 3.43807 1.24131 5.8074 10.6137 -0.0 0.0 -0.0 1.10906 -1.08658 -2.24453 11.1507 17.0773 -73.2727 3.64159 60.9828 -2.14479 41.6635 0.438601 5.18856 -2.60751 -16.5099 9.28481 0.0 0.0 0.0 15.5639 5.31304 -8.69151 -36.2302 -0.244517 5.46332 25.5635 21.9248 -3.52032 -19.2147 0.0 0.0 -0.0 0.0 -0.0 4.41541 23.2849 -9.02346 -0.394953 -0.0160612 -0.0584816 38.1295 16.3058 5.0401 -23.6797 0.0 0.0 0.0 0.0 0.0 
2513.78160691 763.299 -1516.97157868 151.627703691 83.3623891929 -149.920056535 0.294072 0.00128629 -1.92701 0.296129 0.123881 -1.92302 0.292621 0.516015 -1.85666 0.287875 0.216371 -1.91483 -12.9441 1.88341 4.95199 -12.875 0.467422 5.28769 -0.0 0.0 -0.0 4.0489 -5.30268 7.51841 -26.5674 -12.4578 77.0355 0.382232 -10.722 0.0358692 -31.6782 -2.11271 3.40123 1.39094 6.41919 11.8462 -0.0 0.0 -0.0 0.953653 -3.35219 -2.17703 11.584 16.585 -73.8702 3.88088 62.5009 -2.35559 41.4456 0.426584 5.16342 -2.69453 -16.6735 9.73933 0.0 0.0 0.0 15.5365 6.2602 -8.80773 -30.111 0.0398006 4.56794 24.6889 21.1839 -3.40243 -19.718 0.0 0.0 -0.0 0.0 -0.0 4.43281 23.2654 -9.13458 -0.887277 -0.0355162 -0.131531 37.8225 16.6274 5.02254 -23.7058 0.0 0.0 0.0 0.0 0.0 
2444.83237511 759.496 -1521.72659542 50.1235950935 86.8777546342 -47.7039613397 0.61457 -0.247979 -2.4171 0.617815 -0.0937161 -2.42798 0.622829 0.39284 -2.39783 0.614805 0.00933267 -2.42976 -19.4912 9.65695 7.49102 -19.6222 14.7569 10.9154 -0.0 0.0 -0.0 1.62376 5.48493 3.60996 -21.4714 -18.0213 79.5364 0.585729 -16.1804 0.08326 -38.0 -2.74101 3.91335 3.94547 22.3431 34.2141 -0.0 0.0 -0.0 -1.82344 -4.84448 2.77941 0.634044 22.6074 -71.1538 3.07522 56.7057 -1.65978 34.1121 0.0789418 4.29319 -0.40244 -3.12605 1.35002 0.0 0.0 0.0 3.7388 0.970732 -5.36512 -7.32044 0.231458 1.09887 26.3195 27.6148 -3.73078 -13.0305 0.0 0.0 -0.0 0.0 -0.0 -1.84534 24.3815 -8.2794 5.04887 0.24059 0.736997 34.471 -4.55768 4.34754 -33.5718 0.0 0.0 0.0 0.0 0.0 
2444.58729869 759.496 -1519.87019328 54.5897787284 87.0602503738 -52.1763895723 0.61457 -0.247979 -2.4171 0.617815 -0.0937161 -2.42798 0.622829 0.39284 -2.39783 0.614805 0.00933267 -2.42976 -19.4912 9.65695 7.49102 -19.6222 14.7569 10.9154 -0.0 0.0 -0.0 1.62376 5.48493 3.60996 -21.4714 -18.0213 79.5364 0.585729 -16.1804 0.08326 -38.0 -2.74101 3.91335 3.94547 22.3431 34.2141 -0.0 0.0 -0.0 -1.82344 -4.84448 2.77941 0.634044 22.6074 -71.1538 3.07522 56.7057 -1.65978 34.1121 0.0789418 4.29319 -0.40244 -3.12605 1.35002 0.0 0.0 0.0 3.7388 0.970732 -5.36512 -7.32044 0.231458 1.09887 26.3195 27.6148 -3.73078 -13.0305 0.0 0.0 -0.0 0.0 -0.0 -1.84534 24.3815 -8.2794 5.04887 0.24059 0.736997 34.471 -4.55768 4.34754 -33.5718 0.0 0.0 0.0 0.0 0.0 
2444.41502625 759.496 -1518.5183926 58.1880820145 87.1805939878 -55.7792371026 0.61457 -0.247979 -2.4171 0.617815 -0.0937161 -2.42798 0.622829 0.39284 -2.39783 0.614805 0.00933267 -2.42976 -19.4912 9.65695 7.49102 -19.6222 14.7569 10.9154 -0.0 0.0 -0.0 1.62376 5.48493 3.60996 -21.4714 -18.0213 79.5364 0.585729 -16.1804 0.08326 -38.0 -2.74101 3.91335 3.94547 22.3431 34.2141 -0.0 0.0 -0.0 -1.82344 -4.84448 2.77941 0.634044 22.6074 -71.1538 3.07522 56.7057 -1.65978 34.1121 0.0789418 4.29319 -0.40244 -3.12605 1.35002 0.0 0.0 0.0 3.7388 0.970732 -5.36512 -7.32044 0.231458 1.09887 26.3195 27.6148 -3.73078 -13.0305 0.0 0.0 -0.0 0.0 -0.0 -1.84534 24.3815 -8.2794 5.04887 0.24059 0.736997 34.471 -4.55768 4.34754 -33.5718 0.0 0.0 0.0 0.0 0.0 
2444.02668367 759.496 -1515.30745507 67.9418271861 87.4150609838 -65.543766859 0.61457 -0.247979 -2.4171 0.617815 -0.0937161 -2.42798 0.622829 0.39284 -2.39783 0.614805 0.00933267 -2.42976 -19.4912 9.65695 7.49102 -19.6222 14.7569 10.9154 -0.0 0.0 -0.0 1.62376 5.48493 3.60996 -21.4714 -18.0213 79.5364 0.585729 -16.1804 0.08326 -38.0 -2.74101 3.91335 3.94547 22.3431 34.2141 -0.0 0.0 -0.0 -1.82344 -4.84448 2.77941 0.634044 22.6074 -71.1538 3.07522 56.7057 -1.65978 34.1121 0.0789418 4.29319 -0.40244 -3.12605 1.35002 0.0 0.0 0.0 3.7388 0.970732 -5.36512 -7.32044 0.231458 1.09887 26.3195 27.6148 -3.73078 -13.0305 0.0 0.0 -0.0 0.0 -0.0 -1.84534 24.3815 -8.2794 5.04887 0.24059 0.736997 34.471 -4.55768 4.34754 -33.5718 0.0 0.0 0.0 0.0 0.0 
2445.12608351 759.52 -1539.88408072 21.044949787 85.5766116327 -17.4395073103 0.9003 -0.187544 -2.80428 0.904674 -0.00879182 -2.81052 0.906068 0.53897 -2.75842 0.895464 0.0967457 -2.80887 -18.8118 10.5859 8.0693 -18.9553 16.1439 11.7206 -0.0 0.0 -0.0 1.81561 4.9473 3.91583 -17.0775 -18.5792 78.9847 0.60423 -16.6635 0.0884905 -38.2867 -2.77083 3.93492 3.72737 24.1219 32.9554 -0.0 0.0 -0.0 -1.21706 -3.43769 1.86279 -2.89551 20.5503 -69.5249 2.10164 46.1476 -0.895372 33.2852 0.0468161 4.1925 -0.389406 -3.36189 1.16318 0.0 0.0 0.0 3.85294 -0.595478 -5.80976 -6.70001 0.217312 1.00471 26.8482 28.2852 -3.81363 -11.9659 0.0 0.0 -0.0 0.0 -0.0 -0.660808 24.8163 -9.29879 5.40524 0.260018 0.788193 33.2213 -8.36604 4.22679 -34.3832 0.0 0.0 0.0 0.0 0.0 
2445.32950527 759.52 -1540.96963449 20.2622104198 85.4129919138 -16.6543428243 0.9003 -0.187544 -2.80428 0.904674 -0.00879182 -2.81052 0.906068 0.53897 -2.75842 0.895464 0.0967457 -2.80887 -18.8118 10.5859 8.0693 -18.9553 16.1439 11.7206 -0.0 0.0 -0.0 1.81561 4.9473 3.91583 -17.0775 -18.5792 78.9847 0.60423 -16.6635 0.0884905 -38.2867 -2.77083 3.93492 3.72737 24.1219 32.9554 -0.0 0.0 -0.0 -1.21706 -3.43769 1.86279 -2.89551 20.5503 -69.5249 2.10164 46.1476 -0.895372 33.2852 0.0468161 4.1925 -0.389406 -3.36189 1.16318 0.0 0.0 0.0 3.85294 -0.595478 -5.80976 -6.70001 0.217312 1.00471 26.8482 28.2852 -3.81363 -11.9659 0.0 0.0 -0.0 0.0 -0.0 -0.660808 24.8163 -9.29879 5.40524 0.260018 0.788193 33.2213 -8.36604 4.22679 -34.3832 0.0 0.0 0.0 0.0 0.0 
